<svg xmlns="http://www.w3.org/2000/svg" width="36" height="36" viewBox="0 0 36 36">
  <path fill="#f8fafc" stroke="#111827" stroke-width="1.5" d="M8 28c-1-6 1-12 7-15 3-2 7-2 11 0 3 2 4 5 3 8-1 4-5 7-10 7z"/>
  <path fill="#fbbf24" stroke="#111827" stroke-width="1.5" d="M22 13l4-10 3 10z"/>
  <path fill="#f472b6" d="M26 5l1-2 1 2z"/>
  <circle cx="24" cy="17" r="1.5" fill="#111827"/>
  <path fill="none" stroke="#ec4899" stroke-width="2" stroke-linecap="round" d="M12 17c-3 1-5 3-6 6M14 14c-2-2-3-4-2-6M17 13c-1-3 0-5 2-7"/>
  <path fill="#f472b6" stroke="#111827" stroke-width="1.5" d="M8 28l-4 3 5-1zM26 27l4 4-1-6z"/>
  <path fill="none" stroke="#111827" stroke-width="1.5" stroke-linecap="round" d="M12 28l-1 5M21 28l1 5"/>
</svg>
